<svg width="21" height="20" viewBox="0 0 21 20" fill="none" xmlns="http://www.w3.org/2000/svg">
<g clip-path="url(#clip0_87_350)">
<path fill-rule="evenodd" clip-rule="evenodd" d="M10.4687 0C4.67979 0 0 4.58333 0 10.2535C0 14.786 2.9985 18.6227 7.15821 19.9806C7.67829 20.0827 7.86879 19.76 7.86879 19.4885C7.86879 19.2508 7.85164 18.436 7.85164 17.5871C4.9395 18.1983 4.33307 16.3648 4.33307 16.3648C3.86507 15.1765 3.17164 14.871 3.17164 14.871C2.2185 14.2429 3.24107 14.2429 3.24107 14.2429C4.29836 14.3108 4.85314 15.2954 4.85314 15.2954C5.78893 16.8571 7.29686 16.4158 7.9035 16.1442C7.99007 15.4821 8.26757 15.0238 8.56221 14.7692C6.23957 14.5315 3.79586 13.6488 3.79586 9.71021C3.79586 8.58979 4.21157 7.67313 4.87029 6.96021C4.76636 6.70563 4.40229 5.65292 4.97443 4.24396C4.97443 4.24396 5.85836 3.97229 7.85143 5.29646C8.70473 5.07201 9.58473 4.95784 10.4687 4.95688C11.3526 4.95688 12.2537 5.07583 13.0858 5.29646C15.0791 3.97229 15.963 4.24396 15.963 4.24396C16.5351 5.65292 16.1709 6.70563 16.0669 6.96021C16.743 7.67313 17.1416 8.58979 17.1416 9.71021C17.1416 13.6488 14.6979 14.5144 12.3579 14.7692C12.7393 15.0917 13.0684 15.7027 13.0684 16.6704C13.0684 18.0454 13.0513 19.149 13.0513 19.4883C13.0513 19.76 13.242 20.0827 13.7619 19.9808C17.9216 18.6225 20.9201 14.786 20.9201 10.2535C20.9372 4.58333 16.2403 0 10.4687 0Z" fill="white"/>
</g>
<defs>
<clipPath id="clip0_87_350">
<rect width="21" height="20" fill="white"/>
</clipPath>
</defs>
</svg>
