<svg width="224" height="100" viewBox="0 0 224 100" fill="none" xmlns="http://www.w3.org/2000/svg">
<path fill-rule="evenodd" clip-rule="evenodd" d="M0 31.0986V46.6522H45.4964C50.7847 46.6522 57.5409 41.7623 57.5409 33.6732C57.5409 30.4199 58.7852 28.2977 54.9614 23.9943L49.142 17.0991C45.8075 13.9884 49.5404 13.9884 52.3412 13.9884H71.5503V46.6522H86.7842V13.9884H107.316V0H40.8304C32.7413 0 28.7858 7.76696 29.0084 11.8109C29.2322 15.8548 29.976 20.9426 36.6979 27.0547C42.8296 32.6281 33.6622 31.0986 32.7413 31.0986H0ZM141.002 0H116.426L102.649 46.6534H117.981L120.468 40.1209H136.644L139.046 46.6534H154.064L141.002 0ZM123.892 28.9211L129.18 11.8109L134.158 28.9211H123.892ZM202.595 31.0986C196.685 31.0986 196.685 28.9211 196.685 28.9211C201.749 28.9211 206.24 21.5427 206.24 13.9884C206.24 6.43415 198.862 0 192.949 0H159.886V46.6534H176.686V31.0998C176.686 31.0998 183.84 39.4988 187.573 42.9206C191.307 46.3424 191.617 46.6534 196.684 46.6534H223.056V31.0998C223.058 31.0986 208.506 31.0986 202.595 31.0986ZM187.351 20.2111H176.689V11.8109H187.351C192.24 11.8109 193.086 20.2111 187.351 20.2111ZM0 52.5626H17.1877L21.5427 68.1186L25.5866 52.5626H43.63L48.2961 68.1186L52.9634 52.5626H67.8949L54.2065 99.2271H40.5193L34.5216 77.1385L27.7641 99.2271H13.7659L0 52.5626ZM103.169 52.8318H78.593L64.8173 99.484H80.1484L82.637 92.9528H98.8139L101.215 99.484H116.235L103.169 52.8318ZM86.06 81.7517L91.3482 64.6415L96.3254 81.7517H86.06ZM202.905 66.5633C200.108 66.5633 197.057 66.8903 200.393 69.9998L206.214 76.8963C210.036 81.1996 209.975 82.9935 209.975 86.2493C209.975 94.3372 201.973 99.2271 196.685 99.2271L159.927 99.4742C154.862 99.4742 154.552 99.1644 150.818 95.7426C147.087 92.3208 139.931 83.9206 139.931 83.9206V99.4742H123.133V52.822H156.196C162.107 52.822 169.486 59.2574 169.486 66.8104C169.486 74.3659 164.996 81.7431 159.929 81.7431C159.929 81.7431 162.157 83.9833 165.89 83.9833C169.624 83.9833 183.997 83.9981 183.997 83.9981C184.917 83.9981 194.083 85.5276 187.953 79.9541C181.231 73.8421 180.487 68.7568 180.263 64.7128C180.039 60.6689 183.536 52.5638 191.622 52.5638H223.061V66.5645L202.905 66.5633ZM150.595 73.0318H139.93V64.6317H150.595C155.484 64.6317 156.329 73.0318 150.595 73.0318Z" fill="white"/>
</svg>
